# xmcd CD database file
#
# Track frame offsets:
#	150
#	14330
#	26815
#	41563
#	58683
#	68348
#	82408
#	94355
#	104783
#	117723
#	132680
#	148038
#
# Disc length: 2171 seconds
#
# Revision: 0
# Processed by: cddbd v1.4PL0 Copyright (c) Steve Scherf et al.
# Submitted via: CDex 1.50beta10
#
DISCID=bc08790c
DTITLE=Asleep At The Wheel - Bob Wills Vol 2 - The Best Of Western Swing
DYEAR=1900
DGENRE=Country
TTITLE0=House Of Blue Lights
TTITLE1=Miss Molly
TTITLE2=Choo Choo Ch"Boogie
TTITLE3=Blood-Shot Eyes 
TTITLE4=Tulsa Straight Ahead
TTITLE5=Coast To Coast   
TTITLE6=Way Down Texas Way
TTITLE7=Blowin' Like A Bandit
TTITLE8=Don't Ask Me Why (I'm Going To Texas) 
TTITLE9=Boogie Back To Texas  
TTITLE10=Dead Man
TTITLE11=Chattanooga Choo Choo
EXTD=
EXTT0=
EXTT1=
EXTT2=
EXTT3=
EXTT4=
EXTT5=
EXTT6=
EXTT7=
EXTT8=
EXTT9=
EXTT10=
EXTT11=
PLAYORDER=
